<svg xmlns="http://www.w3.org/2000/svg" width="48" height="40" viewBox="0 0 48 40">
  <defs>
    <style>
      .cls-1 {
        fill: #939aa1;
        fill-rule: evenodd;
      }
    </style>
  </defs>
  <path class="cls-1" d="M826.385,905.073a0.422,0.422,0,0,0,.419-0.424v-4.774c0-.826,0-1.168,1.155-1.168h0.988v5.942a0.42,0.42,0,1,0,.839,0v-6.366a0.421,0.421,0,0,0-.419-0.425h-1.408c-1.84,0-1.994,1-1.994,2.017v4.774A0.422,0.422,0,0,0,826.385,905.073Zm12.234,4.32h1.863a0.594,0.594,0,0,0,0-1.187h-1.863A0.594,0.594,0,0,0,838.619,909.393Zm0.11-5.066h9.388c2.877,0,3.423-1.216,3.423-3.46v-6.781a0.59,0.59,0,0,0-.588-0.594h-9.638a0.594,0.594,0,0,0,0,1.187h9.051v6.188c0,1.688-.109,2.272-2.248,2.272h-9.388A0.594,0.594,0,0,0,838.729,904.327Zm11.718,23.565a12.694,12.694,0,0,0,6.463-23.534,12.4,12.4,0,0,0-6.463-1.814A12.621,12.621,0,0,0,837.91,915.22a12.79,12.79,0,0,0,.148,1.889A12.637,12.637,0,0,0,850.447,927.892Zm0-23.59a10.675,10.675,0,0,1,5.566,1.562A10.777,10.777,0,1,1,850.447,904.3Zm0.006,19.638a8.721,8.721,0,1,0-8.625-8.72,0.435,0.435,0,1,0,.869,0,7.757,7.757,0,1,1,7.756,7.841A0.44,0.44,0,0,0,850.453,923.94Zm6.457-19.582q-0.4-.246-0.824-0.459V889.187H845.514c-3.864,0-6.308,12.436-6.308,16.388v4.039a12.691,12.691,0,0,0-1.174,3.861v-7.9c0-1.772,1.794-17.576,7.482-17.576h11.159a0.591,0.591,0,0,1,.588.594v15.986C857.145,904.5,857.028,904.43,856.91,904.358Zm-31.79,20.971a5.891,5.891,0,0,0,0-11.782,0.3,0.3,0,0,0,0,.593,5.3,5.3,0,1,1-5.24,5.3,0.294,0.294,0,1,0-.587,0A5.866,5.866,0,0,0,825.12,925.329Zm0,2.671a8.6,8.6,0,1,0-8.368-7.285A8.537,8.537,0,0,0,825.122,928Zm0-15.938a7.376,7.376,0,1,1-7.206,8.478,7.248,7.248,0,0,1-.088-1.1A7.344,7.344,0,0,1,825.122,912.062Zm7.944,5.7a8.678,8.678,0,0,1,.071,1.087c0,0.2-.008.393-0.023,0.6h4.721V905.436H820.708v-1.188h17.714a0.59,0.59,0,0,1,.588.594v15.2a0.59,0.59,0,0,1-.588.594h-5.356v-2.869ZM819.91,904.224h2.284a0.59,0.59,0,0,1,.588.594v7.2c0,0.016,0,.031,0,0.047h-1.694c0.169-.13.342-0.257,0.522-0.376v-6.275h-1.7c-2.653,0-3.735,1.1-3.735,3.788v10.238h1.217v1.187h-1.805a0.59,0.59,0,0,1-.587-0.593V909.2C815,905.852,816.606,904.224,819.91,904.224Z" transform="translate(-815 -888)"/>
</svg>
