<svg xmlns="http://www.w3.org/2000/svg" width="18" height="14" viewBox="0 0 18 14">
  <path class="cls-1" d="M1583.92,74.725a1.155,1.155,0,0,1-.41.894,1.381,1.381,0,0,1-.97.378,1.4,1.4,0,0,1-.98-0.378,1.181,1.181,0,0,1,0-1.789,1.408,1.408,0,0,1,.98-0.378,1.384,1.384,0,0,1,.97.378A1.156,1.156,0,0,1,1583.92,74.725Zm9.7,0a1.165,1.165,0,0,1-.42.894,1.364,1.364,0,0,1-.97.378,1.381,1.381,0,0,1-.97-0.378,1.181,1.181,0,0,1,0-1.789,1.384,1.384,0,0,1,.97-0.378,1.367,1.367,0,0,1,.97.378A1.167,1.167,0,0,1,1593.62,74.725ZM1595,63.908V69a0.587,0.587,0,0,1-.18.422,0.694,0.694,0,0,1-.44.214l-11.29,1.213a6.407,6.407,0,0,1,.14.7,1.889,1.889,0,0,1-.26.636h9.95a0.7,0.7,0,0,1,.49.189,0.582,0.582,0,0,1,0,.9,0.7,0.7,0,0,1-.49.188h-11.07a0.7,0.7,0,0,1-.49-0.188,0.584,0.584,0,0,1-.21-0.448,0.861,0.861,0,0,1,.09-0.314c0.06-.135.12-0.255,0.17-0.358s0.14-.235.24-0.4,0.15-.26.16-0.293l-1.91-8.183h-2.21a0.662,0.662,0,0,1-.48-0.189,0.581,0.581,0,0,1,0-.895,0.662,0.662,0,0,1,.48-0.189h2.77a0.7,0.7,0,0,1,.31.065,0.62,0.62,0,0,1,.21.154,0.865,0.865,0,0,1,.14.244q0.06,0.154.09,0.258t0.06,0.294c0.02,0.126.04,0.212,0.05,0.258h12.99a0.663,0.663,0,0,1,.48.189A0.582,0.582,0,0,1,1595,63.908Z" transform="translate(-1577 -62)"/>
</svg>
