<svg xmlns="http://www.w3.org/2000/svg" width="36" height="36" viewBox="0 0 36 36">
  <defs>
    <style>
      .cls-1 {
        fill: #939aa1;
        fill-rule: evenodd;
      }
    </style>
  </defs>
  <path class="cls-1" d="M1083.01,927A18.065,18.065,0,0,1,1065,909a18,18,0,1,1,36,0A18.062,18.062,0,0,1,1083.01,927Zm0-33.5a15.541,15.541,0,0,0-15.52,15.5,15.9,15.9,0,0,0,.19,2.309,15.492,15.492,0,0,0,30.64,0,16.047,16.047,0,0,0,.19-2.313A15.518,15.518,0,0,0,1083.01,893.5ZM1083,921.387A12.385,12.385,0,1,1,1095.38,909a0.625,0.625,0,1,1-1.25,0A11.13,11.13,0,1,0,1083,920.139,0.624,0.624,0,1,1,1083,921.387Z" transform="translate(-1065 -891)"/>
</svg>
