<svg xmlns="http://www.w3.org/2000/svg" width="36" height="36" viewBox="0 0 36 36">
  <defs>
    <style>
      .cls-1 {
        fill: #939aa1;
        fill-rule: evenodd;
      }
    </style>
  </defs>
  <path id="a" class="cls-1" d="M1572.01,920.754A12.814,12.814,0,0,1,1559.4,909.9a11.581,11.581,0,0,1-.16-1.9,12.755,12.755,0,1,1,25.51,0,11.6,11.6,0,0,1-.15,1.9A12.794,12.794,0,0,1,1572.01,920.754Zm0-23.741a11.009,11.009,0,0,0-11,10.988,11.987,11.987,0,0,0,.13,1.636,10.983,10.983,0,0,0,21.72,0,12.116,12.116,0,0,0,.13-1.639A11,11,0,0,0,1572.01,897.013Zm0,28.986A18.063,18.063,0,0,1,1554,908a18,18,0,1,1,36,0A18.061,18.061,0,0,1,1572.01,926Zm0-33.5A15.544,15.544,0,0,0,1556.49,908a15.915,15.915,0,0,0,.19,2.309,15.492,15.492,0,0,0,30.64,0,16.045,16.045,0,0,0,.19-2.312A15.519,15.519,0,0,0,1572.01,892.5Zm-3.38,20.983-1.74,1.743a8.848,8.848,0,0,0,2.1,1.106,3.53,3.53,0,0,1-.51-1.823A3.479,3.479,0,0,1,1568.63,913.478Zm3.37-8.459a3.617,3.617,0,0,1-.73-0.076,1.6,1.6,0,0,0-.17.045l0.9,0.9,0.91-.907c-0.06-.017-0.12-0.031-0.17-0.044A3.644,3.644,0,0,1,1572,905.019Zm-0.9,5.993c0.05,0.017.11,0.032,0.17,0.046a3.547,3.547,0,0,1,.73-0.077,3.475,3.475,0,0,1,.73.078c0.06-.014.12-0.029,0.17-0.046l-0.9-.905Zm-2.16-3.753a3.467,3.467,0,0,1,0,1.481c0.02,0.056.03,0.111,0.05,0.165l0.9-.9-0.9-.907A1.018,1.018,0,0,0,1568.94,907.259ZM1563.65,905a3.515,3.515,0,0,1,1.85-.527,3.551,3.551,0,0,1,1.03.153l-1.76-1.759A8.955,8.955,0,0,0,1563.65,905Zm4.83-3.508a3.466,3.466,0,0,1,.52-1.831,8.96,8.96,0,0,0-1.56.739c-0.19.115-.38,0.239-0.56,0.367l1.75,1.75A3.467,3.467,0,0,1,1568.48,901.5Zm-4.81,9.509a8.637,8.637,0,0,0,1.11,2.112l1.75-1.747a3.551,3.551,0,0,1-1.03.153A3.492,3.492,0,0,1,1563.67,911.005Zm13.8-6.375a3.551,3.551,0,0,1,1.03-.153,3.461,3.461,0,0,1,1.84.525,8.692,8.692,0,0,0-1.11-2.126Zm-2.46,2.462-0.9.908,0.9,0.9a0.967,0.967,0,0,0,.05-0.164,3.467,3.467,0,0,1,0-1.481C1575.04,907.2,1575.03,907.147,1575.01,907.092Zm2.46,4.278,1.75,1.748a8.632,8.632,0,0,0,1.11-2.114,3.484,3.484,0,0,1-1.83.519A3.551,3.551,0,0,1,1577.47,911.37Zm-1.95-9.874a3.467,3.467,0,0,1-.15,1.025l1.75-1.753a8.925,8.925,0,0,0-2.12-1.111A3.491,3.491,0,0,1,1575.52,901.5Zm0,13.008a3.539,3.539,0,0,1-.51,1.827,8.783,8.783,0,0,0,2.1-1.108l-1.74-1.745A3.479,3.479,0,0,1,1575.52,914.5Zm-3.52-5.658a0.85,0.85,0,0,1-.84-0.72c0-.045-0.01-0.086-0.01-0.126a0.856,0.856,0,0,1,.41-0.726,0.9,0.9,0,0,1,.44-0.122,0.85,0.85,0,0,1,.85.848c0,0.039-.01.081-0.01,0.126A0.85,0.85,0,0,1,1572,908.846Z" transform="translate(-1554 -890)"/>
</svg>
