<svg xmlns="http://www.w3.org/2000/svg" width="36" height="36" viewBox="0 0 36 36">
  <defs>
    <style>
      .cls-1 {
        fill: #939aa1;
        fill-rule: evenodd;
      }
    </style>
  </defs>
  <path class="cls-1" d="M1345.3,909.93a5.379,5.379,0,0,1,.7-0.816c-0.21.018-.42,0.044-0.63,0.072,0.03-.4.04-0.8,0.04-1.21q0-.548-0.03-1.086a5.122,5.122,0,0,1,.54-0.918c-0.2.054-.4,0.114-0.6,0.178a17.072,17.072,0,0,0-.4-2.274,4.9,4.9,0,0,1,.38-0.985c-0.19.088-.38,0.181-0.56,0.278a17.831,17.831,0,0,0-.79-2.172,5.119,5.119,0,0,1,.2-1.032c-0.18.119-.34,0.244-0.51,0.371a16.767,16.767,0,0,0-1.15-2,5.287,5.287,0,0,1,.02-1.053c-0.15.147-.3,0.3-0.44,0.454a15.892,15.892,0,0,0-1.48-1.773,5.268,5.268,0,0,1-.17-1.037c-0.12.171-.23,0.345-0.34,0.52a18.352,18.352,0,0,0-1.77-1.494,5.015,5.015,0,0,1-.34-0.985c-0.09.187-.17,0.376-0.25,0.567a17.127,17.127,0,0,0-2.02-1.171,6.1,6.1,0,0,1-.5-0.9c-0.05.2-.1,0.4-0.14,0.6a17.328,17.328,0,0,0-2.19-.805,4.919,4.919,0,0,1-.65-0.79c-0.01.2-.03,0.4-0.03,0.607a17.254,17.254,0,0,0-2.31-.407,5,5,0,0,1-.76-0.667c0.01,0.2.04,0.4,0.06,0.605-0.39-.026-0.78-0.041-1.18-0.041s-0.77.014-1.15,0.039a5.107,5.107,0,0,1-.88-0.523c0.05,0.2.11,0.391,0.17,0.583a17.386,17.386,0,0,0-2.3.4,4.969,4.969,0,0,1-.95-0.363c0.09,0.185.18,0.365,0.27,0.544a17.614,17.614,0,0,0-2.19.8,4.982,4.982,0,0,1-1-.193c0.11,0.169.24,0.332,0.36,0.493a16.936,16.936,0,0,0-2.01,1.162,5.239,5.239,0,0,1-1.04-.014q0.225,0.219.45,0.427a18.248,18.248,0,0,0-1.77,1.484,5.081,5.081,0,0,1-1.03.17c0.17,0.12.34,0.234,0.52,0.345a18.408,18.408,0,0,0-1.49,1.765,5.2,5.2,0,0,1-.99.349c0.19,0.088.38,0.17,0.57,0.249a18.21,18.21,0,0,0-1.16,2,5.116,5.116,0,0,1-.91.514c0.2,0.054.4,0.1,0.6,0.146a17.833,17.833,0,0,0-.79,2.168,5.122,5.122,0,0,1-.81.666c0.21,0.019.41,0.031,0.62,0.039a16.925,16.925,0,0,0-.4,2.264,4.741,4.741,0,0,1-.69.806c0.21-.018.42-0.043,0.63-0.071-0.03.385-.04,0.772-0.04,1.163s0.01,0.755.03,1.127a5.208,5.208,0,0,1-.54.924c0.2-.055.41-0.116,0.61-0.181a16.75,16.75,0,0,0,.39,2.253,5.052,5.052,0,0,1-.38,1.008c0.2-.089.39-0.185,0.57-0.283a19.28,19.28,0,0,0,.78,2.137,4.831,4.831,0,0,1-.2,1.072c0.18-.123.35-0.252,0.52-0.383a17.7,17.7,0,0,0,1.13,1.957,4.562,4.562,0,0,1-.01,1.108c0.16-.154.31-0.313,0.45-0.474a19.5,19.5,0,0,0,1.44,1.726,5.251,5.251,0,0,1,.2,1.1q0.18-.27.36-0.548a17.9,17.9,0,0,0,1.71,1.45,4.582,4.582,0,0,1,.38,1.057c0.1-.2.18-0.4,0.27-0.6a17.539,17.539,0,0,0,1.94,1.133,5.375,5.375,0,0,1,.56.971q0.075-.317.15-0.636a17.514,17.514,0,0,0,2.11.78,5.444,5.444,0,0,1,.72.856c0.02-.217.03-0.435,0.04-0.652a17.2,17.2,0,0,0,2.21.4,5.008,5.008,0,0,1,.85.722c-0.01-.218-0.04-0.435-0.07-0.651,0.39,0.026.79,0.041,1.19,0.041,0.36,0,.71-0.012,1.06-0.033a5.334,5.334,0,0,1,.97.564c-0.06-.212-0.12-0.421-0.19-0.628a17.2,17.2,0,0,0,2.22-.382,5.023,5.023,0,0,1,1.05.385c-0.09-.2-0.19-0.392-0.29-0.584a17.27,17.27,0,0,0,2.11-.764,5.028,5.028,0,0,1,1.1.2q-0.18-.268-0.39-0.526a16.7,16.7,0,0,0,1.95-1.118,5.141,5.141,0,0,1,1.13,0c-0.16-.156-0.32-0.306-0.48-0.453a19.153,19.153,0,0,0,1.73-1.437,5.052,5.052,0,0,1,1.1-.191c-0.18-.127-0.36-0.246-0.55-0.363a16.587,16.587,0,0,0,1.46-1.72,5.126,5.126,0,0,1,1.05-.376c-0.2-.092-0.4-0.177-0.6-0.259a16.434,16.434,0,0,0,1.15-1.961,5.284,5.284,0,0,1,.95-0.542c-0.2-.055-0.41-0.1-0.62-0.149a17.526,17.526,0,0,0,.79-2.143,4.879,4.879,0,0,1,.83-0.688c-0.21-.019-0.42-0.031-0.63-0.039A16.751,16.751,0,0,0,1345.3,909.93Zm-2.34,4.837c-0.02.037-.03,0.075-0.05,0.112a12.748,12.748,0,0,0-1.79-.112l0.44,2.487c-0.03.036-.05,0.071-0.08,0.106a12.813,12.813,0,0,0-1.74-.419v2.517c-0.03.033-.06,0.068-0.09,0.1a12.931,12.931,0,0,0-1.64-.714l-0.43,2.476-0.12.082a12.97,12.97,0,0,0-1.48-.984l-0.87,2.372c-0.04.02-.08,0.036-0.12,0.055a12.189,12.189,0,0,0-1.29-1.23l-1.26,2.182-0.13.037a13.343,13.343,0,0,0-1.06-1.437l-1.62,1.933-0.14.01a13.177,13.177,0,0,0-.79-1.6l-1.93,1.618-0.14-.01a14.181,14.181,0,0,0-.5-1.711l-2.19,1.264c-0.04-.011-0.08-0.023-0.13-0.034a11.73,11.73,0,0,0-.2-1.777l-2.36.862c-0.04-.019-0.09-0.037-0.13-0.057a11.816,11.816,0,0,0,.11-1.781l-2.48.438c-0.04-.025-0.07-0.053-0.11-0.079a13.069,13.069,0,0,0,.42-1.734l-2.52,0c-0.03-.033-0.07-0.063-0.1-0.1a11.3,11.3,0,0,0,.71-1.637l-2.48-.436c-0.03-.037-0.05-0.074-0.08-0.11a11.8,11.8,0,0,0,.99-1.489l-2.39-.867a0.522,0.522,0,0,0-.05-0.108,12.281,12.281,0,0,0,1.24-1.3l-2.2-1.27-0.03-.111a12.216,12.216,0,0,0,1.45-1.07l-1.95-1.639a0.388,0.388,0,0,1-.01-0.107,12.825,12.825,0,0,0,1.61-.8c0,0.08.01,0.161,0.01,0.243-0.1-.013-0.21-0.025-0.33-0.034a5.229,5.229,0,0,1,.37.387c0.02,0.287.06,0.579,0.1,0.879,0.07,0.444.16,0.881,0.26,1.311-0.11.007-.22,0.014-0.33,0.024a4.61,4.61,0,0,1,.42.324,16.168,16.168,0,0,0,.74,2.087c-0.11.027-.22,0.054-0.33,0.084a4.5,4.5,0,0,1,.49.248,15,15,0,0,0,1.09,1.919c-0.11.046-.21,0.094-0.32,0.144a4.843,4.843,0,0,1,.54.166,14.02,14.02,0,0,0,1.4,1.689c-0.1.066-.2,0.133-0.3,0.2a4.273,4.273,0,0,1,.57.073,14.974,14.974,0,0,0,1.67,1.419c-0.09.084-.18,0.163-0.27,0.25a4.333,4.333,0,0,1,.58-0.028,15.479,15.479,0,0,0,1.88,1.113c-0.07.1-.15,0.189-0.21,0.287a4.144,4.144,0,0,1,.55-0.125,15.018,15.018,0,0,0,2.05.775c-0.05.1-.11,0.207-0.16,0.313a5.269,5.269,0,0,1,.51-0.214,14.83,14.83,0,0,0,2.17.407c-0.04.109-.07,0.219-0.1,0.33,0.15-.107.3-0.2,0.45-0.293,0.42,0.036.84,0.056,1.26,0.056,0.32,0,.64-0.014.96-0.036-0.02.113-.03,0.226-0.04,0.339q0.195-.193.39-0.363a14.428,14.428,0,0,0,2.19-.371c0.01,0.114.01,0.229,0.03,0.343a3.105,3.105,0,0,1,.32-0.434,14.549,14.549,0,0,0,2.08-.743l0.09,0.341a4.633,4.633,0,0,1,.25-0.5,14.071,14.071,0,0,0,1.91-1.087l0.15,0.327a3.565,3.565,0,0,1,.17-0.544,14.95,14.95,0,0,0,1.69-1.392c0.06,0.1.13,0.2,0.2,0.3a3.592,3.592,0,0,1,.07-0.564,15.034,15.034,0,0,0,1.43-1.665c0.08,0.085.16,0.174,0.24,0.257a5.137,5.137,0,0,1-.03-0.556,14.888,14.888,0,0,0,1.13-1.894c0.09,0.068.18,0.14,0.27,0.205a4.661,4.661,0,0,1-.12-0.526,14.779,14.779,0,0,0,.79-2.074c0.1,0.05.19,0.1,0.3,0.152a4.278,4.278,0,0,1-.21-0.492c0.13-.517.25-1.044,0.33-1.581,0.03-.2.05-0.4,0.08-0.6,0.1,0.032.21,0.062,0.32,0.091a4.014,4.014,0,0,1-.29-0.443c0.04-.428.06-0.844,0.06-1.251,0-.223-0.01-0.443-0.02-0.663l1.63,1.935c0,0.037-.01.074-0.01,0.112a12.6,12.6,0,0,0-1.73.509l1.28,2.208-0.03.1a12.775,12.775,0,0,0-1.8.2Zm-30.86-10.953a12.958,12.958,0,0,0,1.78-.2,1.941,1.941,0,0,0-.07.229c-0.1-.049-0.19-0.1-0.29-0.145a3.857,3.857,0,0,1,.2.462,13.9,13.9,0,0,0-.37,1.938l-1.27-2.2A0.3,0.3,0,0,1,1312.1,903.814Zm0.97-2.7a12.874,12.874,0,0,0,1.78.114,2.13,2.13,0,0,0-.11.211c-0.08-.063-0.17-0.129-0.25-0.19,0.04,0.159.08,0.321,0.11,0.486a14.705,14.705,0,0,0-.71,1.832l-0.86-2.364C1313.04,901.176,1313.06,901.146,1313.07,901.117Zm1.42-2.488a13.054,13.054,0,0,0,1.73.422c-0.04.063-.09,0.127-0.14,0.192-0.07-.079-0.14-0.16-0.22-0.235a4.172,4.172,0,0,1,.03.5,13.909,13.909,0,0,0-1.02,1.668l-0.43-2.469C1314.46,898.681,1314.47,898.656,1314.49,898.629Zm1.83-2.2a12.364,12.364,0,0,0,1.65.72l-0.18.165c-0.06-.092-0.13-0.184-0.19-0.275a4.531,4.531,0,0,1-.06.519,14.4,14.4,0,0,0-1.28,1.453V896.5C1316.28,896.471,1316.3,896.447,1316.32,896.425Zm26.42,10.584c0.11,0.013.22,0.024,0.33,0.034a3.692,3.692,0,0,1-.36-0.381,16.765,16.765,0,0,0-.29-1.895l1.94,1.627v0.1a13.532,13.532,0,0,0-1.61.8C1342.75,907.2,1342.74,907.1,1342.74,907.009Zm-3.08,6.034a14.073,14.073,0,0,1-.73,1.414l-0.54.194c0.07,0.113.14,0.221,0.21,0.331a13.13,13.13,0,0,1-.98,1.277l-0.54.1c0.04,0.12.08,0.239,0.13,0.359a13.674,13.674,0,0,1-1.17,1.09h-0.56c0.03,0.125.05,0.251,0.07,0.375a11.626,11.626,0,0,1-1.34.872l-0.55-.1c0,0.129,0,.258.01,0.387a12.01,12.01,0,0,1-1.47.624l-0.53-.194-0.06.389a12.906,12.906,0,0,1-1.54.357l-0.5-.287c-0.05.124-.09,0.25-0.13,0.376a12.562,12.562,0,0,1-1.43.084l-0.15,0-0.44-.372c-0.07.114-.14,0.231-0.2,0.347a12.706,12.706,0,0,1-1.57-.2l-0.37-.44c-0.08.1-.16,0.2-0.24,0.306a12.946,12.946,0,0,1-1.53-.473l-0.28-.487c-0.1.081-.19,0.169-0.29,0.253a13.216,13.216,0,0,1-1.43-.736l-0.19-.519c-0.1.062-.21,0.131-0.32,0.2a12.039,12.039,0,0,1-1.28-.973l-0.1-.541c-0.12.042-.24,0.087-0.35,0.134a12.666,12.666,0,0,1-1.1-1.17V915.46c-0.12.022-.25,0.046-0.38,0.072a15.384,15.384,0,0,1-.87-1.331l0.1-.561c-0.13,0-.26,0-0.4,0a12.294,12.294,0,0,1-.61-1.452l0.2-.545c-0.14-.024-0.27-0.046-0.4-0.065a11.284,11.284,0,0,1-.35-1.538l0.29-.5c-0.13-.047-0.26-0.091-0.38-0.134a11.911,11.911,0,0,1-.09-1.431v-0.13l0.38-.456c-0.12-.07-0.24-0.137-0.36-0.2a13.144,13.144,0,0,1,.19-1.545l0.46-.386c-0.11-.09-0.22-0.174-0.33-0.26a10.963,10.963,0,0,1,.46-1.486l0.52-.306c-0.08-.107-0.18-0.21-0.27-0.315a12.033,12.033,0,0,1,.7-1.383l0.58-.208c-0.07-.121-0.15-0.238-0.22-0.356a13.041,13.041,0,0,1,.94-1.244l0.59-.1c-0.04-.128-0.09-0.256-0.14-0.382a12.5,12.5,0,0,1,1.16-1.066h0.58c-0.03-.131-0.05-0.262-0.08-0.393,0.33-.239.66-0.464,1.02-0.675,0.1-.063.21-0.123,0.31-0.183l0.57,0.1c0-.132-0.01-0.265-0.01-0.4a13.142,13.142,0,0,1,1.45-.617l0.55,0.2,0.06-.393a12.9,12.9,0,0,1,1.54-.355l0.5,0.29c0.05-.125.09-0.251,0.13-0.377a12.683,12.683,0,0,1,1.45-.085c0.04,0,.09,0,0.13,0l0.44,0.372c0.07-.115.14-0.232,0.2-0.35a12.5,12.5,0,0,1,1.56.194l0.38,0.445c0.08-.1.16-0.208,0.25-0.313a12.958,12.958,0,0,1,1.51.461l0.29,0.507c0.1-.086.2-0.177,0.3-0.266a12.984,12.984,0,0,1,1.41.72l0.19,0.547c0.12-.065.23-0.138,0.35-0.208a12.723,12.723,0,0,1,1.26.956l0.1,0.569c0.12-.045.25-0.092,0.37-0.141a13.993,13.993,0,0,1,1.08,1.149v0.585c0.13-.023.26-0.048,0.4-0.075a13.322,13.322,0,0,1,.85,1.317l-0.1.578c0.13,0,.27,0,0.41,0a14.129,14.129,0,0,1,.61,1.44l-0.21.557c0.14,0.025.27,0.047,0.41,0.067a12.76,12.76,0,0,1,.35,1.523l-0.3.514c0.13,0.048.26,0.093,0.39,0.136a13.574,13.574,0,0,1,.08,1.435v0.126l-0.38.455c0.12,0.069.23,0.135,0.35,0.2-0.02.357-.06,0.725-0.12,1.114-0.02.15-.05,0.3-0.08,0.447l-0.44.373c0.1,0.087.21,0.167,0.31,0.25a12.713,12.713,0,0,1-.46,1.512l-0.5.289C1339.48,912.847,1339.57,912.944,1339.66,913.043Zm4.2-9.368a13.064,13.064,0,0,0-1.45,1.067l-0.06-.278c0.11-.006.21-0.013,0.32-0.023a4.522,4.522,0,0,1-.41-0.312,14.013,14.013,0,0,0-.62-1.812l2.19,1.264Zm-0.99-2.69a12.253,12.253,0,0,0-1.24,1.3c-0.04-.087-0.08-0.171-0.12-0.257,0.11-.026.22-0.052,0.33-0.082a3.983,3.983,0,0,1-.47-0.238,13.43,13.43,0,0,0-.93-1.676l2.39,0.868C1342.84,900.928,1342.86,900.957,1342.87,900.985Zm-1.45-2.473a13.1,13.1,0,0,0-.99,1.5c-0.05-.079-0.1-0.16-0.16-0.238,0.11-.044.21-0.089,0.31-0.137a4.518,4.518,0,0,1-.51-0.157,15.328,15.328,0,0,0-1.2-1.485l2.5,0.438C1341.39,898.458,1341.4,898.485,1341.42,898.512Zm-1.85-2.19a12.618,12.618,0,0,0-.72,1.65c-0.06-.069-0.13-0.136-0.19-0.2,0.09-.062.19-0.126,0.28-0.191a4.363,4.363,0,0,1-.53-0.067,14.373,14.373,0,0,0-1.44-1.254l2.54,0Zm-2.2-1.835a13.258,13.258,0,0,0-.42,1.75c-0.08-.057-0.15-0.113-0.23-0.169,0.08-.077.17-0.152,0.25-0.232a4.439,4.439,0,0,1-.54.027,14.406,14.406,0,0,0-1.63-.986l2.5-.442C1337.32,894.452,1337.35,894.469,1337.37,894.487Zm-2.49-1.429a12.081,12.081,0,0,0-.11,1.8c-0.08-.043-0.17-0.085-0.25-0.126,0.07-.09.14-0.177,0.2-0.271a4.373,4.373,0,0,1-.52.121,14.277,14.277,0,0,0-1.77-.692l2.38-.867C1334.83,893.035,1334.86,893.046,1334.88,893.058Zm-2.7-.975a13.385,13.385,0,0,0,.2,1.792c-0.08-.026-0.17-0.048-0.26-0.073,0.05-.1.11-0.2,0.16-0.3a4.413,4.413,0,0,1-.49.207,14.362,14.362,0,0,0-1.88-.367l2.2-1.277A0.637,0.637,0,0,1,1332.18,892.083Zm-2.82-.481a14.469,14.469,0,0,0,.5,1.733c-0.08-.011-0.17-0.024-0.26-0.033,0.04-.107.07-0.216,0.1-0.324-0.15.107-.3,0.2-0.45,0.292-0.41-.034-0.82-0.056-1.24-0.056-0.23,0-.45.007-0.68,0.018l1.95-1.636Zm-2.87.011a13.4,13.4,0,0,0,.8,1.621c-0.09,0-.17.007-0.26,0.013,0.01-.112.03-0.224,0.04-0.336-0.13.13-.26,0.251-0.4,0.366a14.522,14.522,0,0,0-1.89.3l1.63-1.955Zm-2.82.512a12.435,12.435,0,0,0,1.07,1.458c-0.09.018-.17,0.037-0.25,0.057l-0.03-.338a3,3,0,0,1-.32.428,14.473,14.473,0,0,0-1.82.626l1.27-2.209C1323.62,892.139,1323.64,892.132,1323.67,892.125Zm-2.69,1a13.305,13.305,0,0,0,1.3,1.249c-0.07.033-.15,0.066-0.23,0.1-0.02-.11-0.05-0.22-0.08-0.33a4.447,4.447,0,0,1-.24.478,13.648,13.648,0,0,0-1.33.711c-0.12.074-.25,0.15-0.37,0.227l0.88-2.4A0.59,0.59,0,0,1,1320.98,893.12Zm-2.47,1.451a12.941,12.941,0,0,0,1.5,1l-0.21.139c-0.05-.1-0.09-0.209-0.14-0.313a4.73,4.73,0,0,1-.16.516,14.92,14.92,0,0,0-1.5,1.2l0.43-2.492C1318.46,894.607,1318.48,894.59,1318.51,894.571Zm-5.17,11.561a1.894,1.894,0,0,0-.02.236c-0.11-.031-0.21-0.061-0.32-0.089a3.806,3.806,0,0,1,.28.433c-0.03.419-.05,0.84-0.05,1.267,0,0.233.01,0.47,0.02,0.709l-1.63-1.945v-0.107A12.726,12.726,0,0,0,1313.34,906.132Zm14.65-8.208a10.157,10.157,0,0,0,0,20.314,0.512,0.512,0,1,0,0-1.024,9.134,9.134,0,1,1,9.14-9.134,0.51,0.51,0,1,0,1.02,0A10.171,10.171,0,0,0,1327.99,897.924Z" transform="translate(-1310 -890)"/>
</svg>
