<svg xmlns="http://www.w3.org/2000/svg" width="30" height="30" viewBox="0 0 30 30">
  <defs>
    <style>
      .cls-1 {
        fill: #161d25;
        fill-rule: evenodd;
      }
    </style>
  </defs>
  <path class="cls-1" d="M684,1159.06a7.589,7.589,0,0,1,.828.05v-4.28a0.828,0.828,0,1,0-1.656,0v4.28A7.558,7.558,0,0,1,684,1159.06Zm-7.579,3.53a10.341,10.341,0,0,1,1.17-1.17l-1.873-1.87a0.816,0.816,0,0,0-1.171,0,0.827,0.827,0,0,0,0,1.17Zm15.158,0,1.873-1.87a0.826,0.826,0,0,0,0-1.17,0.816,0.816,0,0,0-1.171,0l-1.873,1.87A10.35,10.35,0,0,1,691.579,1162.59ZM684,1159.94a9.06,9.06,0,1,0,9.061,9.06A9.068,9.068,0,0,0,684,1159.94Zm0,16.34a7.285,7.285,0,1,1,7.286-7.28A7.287,7.287,0,0,1,684,1176.28Zm14.172-8.11h-4.279c0.022,0.28.042,0.55,0.042,0.83s-0.02.55-.042,0.83h4.279A0.83,0.83,0,0,0,698.172,1168.17Zm-6.593,7.24a10.35,10.35,0,0,1-1.171,1.17l1.873,1.87a0.828,0.828,0,0,0,1.171-1.17ZM674.065,1169c0-.28.019-0.55,0.042-0.83h-4.279a0.83,0.83,0,0,0,0,1.66h4.279C674.084,1169.55,674.065,1169.28,674.065,1169Zm2.355,6.41-1.873,1.87a0.828,0.828,0,0,0,1.171,1.17l1.873-1.87A10.434,10.434,0,0,1,676.42,1175.41Zm7.58,3.52c-0.28,0-.555-0.02-0.828-0.04v4.28a0.828,0.828,0,1,0,1.656,0v-4.28C684.554,1178.91,684.279,1178.93,684,1178.93Z" transform="translate(-669 -1154)"/>
</svg>
