<svg xmlns="http://www.w3.org/2000/svg" width="70" height="47" viewBox="0 0 70 47">
  <defs>
    <style>
      .cls-1 {
        fill: #939aa1;
        fill-rule: evenodd;
      }
    </style>
  </defs>
  <path id="Camioane" class="cls-1" d="M609.162,922.113a0.147,0.147,0,0,1,.021,0H609.3a0.528,0.528,0,0,0,.4-0.182,0.516,0.516,0,0,0,.122-0.416,4.706,4.706,0,0,1-.053-0.716,0.525,0.525,0,0,0-1.05,0,5.1,5.1,0,0,1-.033.582,0.5,0.5,0,0,0-.046.211A0.523,0.523,0,0,0,609.162,922.113Zm-49.637,0h4.464a0.529,0.529,0,0,0,.4-0.18,0.518,0.518,0,0,0,.122-0.416,4.994,4.994,0,0,1-.051-0.718,6.21,6.21,0,0,1,12.42,0,4.837,4.837,0,0,1-.052.716,0.516,0.516,0,0,0,.121.416,0.528,0.528,0,0,0,.4.182h18.484a0.53,0.53,0,0,0,.4-0.18,0.522,0.522,0,0,0,.122-0.416,4.854,4.854,0,0,1-.053-0.718,6.211,6.211,0,0,1,12.421,0,0.525,0.525,0,0,0,1.05,0,6.211,6.211,0,0,1,12.421,0,4.994,4.994,0,0,1-.052.718,0.518,0.518,0,0,0,.122.416,0.529,0.529,0,0,0,.4.18h5.821a0.523,0.523,0,0,0,.525-0.521v-3.816a0.524,0.524,0,0,0-.525-0.522h-1.236V883.905c0-1.956-.959-2.906-2.931-2.906H585.341a3.311,3.311,0,0,0-3.653,3.622v32.318H580.9V897.577a2.069,2.069,0,0,0-2.209-1.951c-0.433,0-2.578.02-4.767,0.041-2.278.022-4.6,0.044-5.1,0.044-1.244,0-8.626,6.217-8.626,8.392v13.151h-0.678a0.524,0.524,0,0,0-.525.522v3.816A0.523,0.523,0,0,0,559.525,922.113Zm3.888-1.042H560.05V918.3h0.678a0.523,0.523,0,0,0,.525-0.52V904.1c0-1.416,6.561-7.13,7.614-7.354,0.452,0,2.785-.02,5.067-0.041,2.184-.021,4.325-0.041,4.757-0.041a1.053,1.053,0,0,1,1.159.91V917.46a0.523,0.523,0,0,0,.525.521h1.838a0.523,0.523,0,0,0,.525-0.521V884.621a2.278,2.278,0,0,1,2.6-2.581h38.967c1.406,0,1.881.471,1.881,1.865v33.871a0.523,0.523,0,0,0,.525.52h1.236v2.775h-4.719c0-.09.006-0.181,0.006-0.272a7.27,7.27,0,0,0-14-2.687,7.27,7.27,0,0,0-14,2.687c0,0.091,0,.182.006,0.272h-17.33c0-.09.006-0.181,0.006-0.272a7.261,7.261,0,0,0-14.521,0C563.406,920.89,563.409,920.981,563.413,921.071Zm2.486-13.389h10.344a0.523,0.523,0,0,0,.525-0.52V900.9a0.523,0.523,0,0,0-.525-0.521H570.53c-1.234,0-5.156,4-5.156,4.934v1.849A0.523,0.523,0,0,0,565.9,907.682Zm9.818-1.041h-9.293v-1.328c0.227-.624,3.386-3.791,4.118-3.893h5.175v5.22ZM570.667,928a7.214,7.214,0,0,0,7.2-6.347,5.686,5.686,0,0,0,.062-0.853,7.261,7.261,0,0,0-14.521,0,5.912,5.912,0,0,0,.064.868A7.212,7.212,0,0,0,570.667,928Zm0-13.357a6.191,6.191,0,0,1,6.21,6.157,4.837,4.837,0,0,1-.052.716,6.206,6.206,0,0,1-12.315.017,5.071,5.071,0,0,1-.053-0.733A6.19,6.19,0,0,1,570.667,914.642ZM602.505,928a7.217,7.217,0,0,0,7.2-6.347,5.824,5.824,0,0,0,.061-0.853,7.261,7.261,0,0,0-14.521,0,6.052,6.052,0,0,0,.064.868A7.21,7.21,0,0,0,602.505,928Zm0-13.357a6.191,6.191,0,0,1,6.211,6.157,4.837,4.837,0,0,1-.052.716,6.205,6.205,0,0,1-12.314.017,4.938,4.938,0,0,1-.055-0.733A6.191,6.191,0,0,1,602.505,914.642Zm0,11.09a4.935,4.935,0,1,0,0-9.87,0.26,0.26,0,1,0,0,.52,4.415,4.415,0,1,1-4.451,4.415,0.263,0.263,0,0,0-.525,0A4.961,4.961,0,0,0,602.5,925.732Zm13.471,0a0.26,0.26,0,1,0,0-.52,4.415,4.415,0,1,1,4.452-4.415,0.263,0.263,0,0,0,.525,0A4.977,4.977,0,1,0,615.973,925.731Zm-45.3,0a4.935,4.935,0,1,0-4.977-4.935,0.263,0.263,0,0,0,.525,0,4.452,4.452,0,1,1,4.452,4.414A0.261,0.261,0,1,0,570.67,925.732ZM615.976,928a7.217,7.217,0,0,0,7.2-6.347,5.976,5.976,0,0,0,.061-0.853,7.261,7.261,0,0,0-14.521,0,5.837,5.837,0,0,0,.064.871A7.21,7.21,0,0,0,615.976,928Zm0-13.357a6.191,6.191,0,0,1,6.211,6.157,4.994,4.994,0,0,1-.052.718,6.205,6.205,0,0,1-12.314.015,4.836,4.836,0,0,1-.055-0.733A6.191,6.191,0,0,1,615.976,914.642Z" transform="translate(-559 -881)"/>
</svg>
