<svg xmlns="http://www.w3.org/2000/svg" width="70" height="31" viewBox="0 0 70 31">
  <defs>
    <style>
      .cls-1 {
        fill: #fff;
        fill-rule: evenodd;
      }
    </style>
  </defs>
  <path id="Autoturisme" class="cls-1" d="M379.3,917.11h-1.219a0.531,0.531,0,0,1-.428-0.211,0.464,0.464,0,0,1-.061-0.451,4.859,4.859,0,0,0,.332-1.783,5.685,5.685,0,0,0-11.35,0,4.855,4.855,0,0,0,.332,1.783,0.469,0.469,0,0,1-.061.451,0.531,0.531,0,0,1-.428.211H335.793a0.533,0.533,0,0,1-.428-0.211,0.466,0.466,0,0,1-.06-0.451,4.855,4.855,0,0,0,.332-1.783,5.691,5.691,0,0,0-11.361,0,4.855,4.855,0,0,0,.332,1.783,0.466,0.466,0,0,1-.06.451,0.533,0.533,0,0,1-.428.211H320.6c-5.371,0-5.6-1.512-5.6-4.93,0-2.215.481-9.566,6.679-11.159,1.916-.489,3.346-0.732,4.607-0.945a17.942,17.942,0,0,0,9.494-3.981c3.407-2.572,8.072-6.1,19.746-6.1,1.308,0,2.692.045,4.117,0.133,15.779,0.974,15.964,1.605,16.412,3.129a1.95,1.95,0,0,0,.277.634c1.158,1.646,5.18,4.4,6.336,4.893,0.305,0.128.718,0.484,1.206,2.105,0.984,3.269,1.852,10.578.314,12.712-0.2.281-.385,0.542-0.553,0.783C382.325,916.257,381.728,917.11,379.3,917.11Zm-0.517-.983H379.3c1.87,0,2.177-.437,3.468-2.281,0.171-.242.355-0.506,0.56-0.791,1.677-2.328-.188-12.7-1.111-13.386-1.387-.587-5.5-3.454-6.749-5.23a2.813,2.813,0,0,1-.414-0.916c-0.253-.861-0.436-1.483-15.476-2.411-1.4-.087-2.764-0.131-4.049-0.131-11.308,0-15.808,3.4-19.094,5.88a18.994,18.994,0,0,1-9.962,4.182c-1.24.209-2.645,0.448-4.517,0.925-5.626,1.447-5.911,8.761-5.911,10.212,0,3.111,0,3.947,4.555,3.947h2.819a5.868,5.868,0,0,1-.182-1.462,6.735,6.735,0,0,1,13.445,0,5.822,5.822,0,0,1-.183,1.462h29.215a5.869,5.869,0,0,1-.183-1.462,6.73,6.73,0,0,1,13.435,0A5.828,5.828,0,0,1,378.78,916.127ZM372.251,921a6.7,6.7,0,0,1-6.328-4.218,5.748,5.748,0,0,1-.395-2.116,6.73,6.73,0,0,1,13.435,0,5.765,5.765,0,0,1-.4,2.124A6.687,6.687,0,0,1,372.251,921Zm0-11.677a5.526,5.526,0,0,0-5.68,5.343,4.855,4.855,0,0,0,.332,1.783,5.784,5.784,0,0,0,10.683.008,4.873,4.873,0,0,0,.335-1.791A5.52,5.52,0,0,0,372.251,909.322Zm0,9.549a4.21,4.21,0,1,1,4.461-4.2,0.261,0.261,0,0,1-.521,0,3.946,3.946,0,1,0-3.94,3.713A0.246,0.246,0,1,1,372.248,918.871Zm-42.29,0a4.21,4.21,0,1,1,0-8.406,0.246,0.246,0,1,1,0,.491,3.719,3.719,0,1,0,3.939,3.711,0.262,0.262,0,0,1,.522,0A4.343,4.343,0,0,1,329.958,918.871Zm0,2.128a6.7,6.7,0,0,1-6.328-4.218,5.747,5.747,0,0,1-.394-2.116,6.735,6.735,0,0,1,13.445,0,5.782,5.782,0,0,1-.4,2.124A6.7,6.7,0,0,1,329.956,921Zm0-11.677a5.526,5.526,0,0,0-5.68,5.343,4.855,4.855,0,0,0,.332,1.783,5.792,5.792,0,0,0,10.693.008,4.849,4.849,0,0,0,.336-1.791A5.526,5.526,0,0,0,329.956,909.322Zm26.273-9.081H336.784a0.268,0.268,0,0,1-.2-0.084,0.236,0.236,0,0,1-.062-0.193,4.643,4.643,0,0,1,1.344-2.516,18.87,18.87,0,0,1,11.625-5.309c2.481-.221,4.345-0.333,5.539-0.333,1.239,0,1.336.118,1.4,0.2a0.24,0.24,0,0,1,.055.151V900A0.254,0.254,0,0,1,356.229,900.241ZM337.1,899.75h18.864v-7.411a7.383,7.383,0,0,0-.934-0.042c-1.178,0-3.025.111-5.49,0.331a18.358,18.358,0,0,0-11.305,5.167A4.212,4.212,0,0,0,337.1,899.75Z" transform="translate(-315 -890)"/>
</svg>
